# xmcd
#
# Track frame offsets: 
#        150
#        12244
#        29549
#        41776
#        57526
#        71799
#        85314
#        101074
#        112737
#        121958
#        133750
#        145377
#
# Disc length: 2121 seconds
#
# Revision: 0
# Processed by: cddbd v1.5.2PL0 Copyright (c) Steve Scherf et al.
# Submitted via: ExactAudioCopy v1.0b4
#
DISCID=b008470c
DTITLE=Johnny Otis - Great Rhythm and Blues Oldies  (LP)
DYEAR=1982
DGENRE=Blues
TTITLE0=Willie And The Hand Jive
TTITLE1=Barrelhouse Blues
TTITLE2=Please Don't Leave Me
TTITLE3=Bad Luck Shadow
TTITLE4=Fannie Mae
TTITLE5=The Signifyin' Monkey
TTITLE6=Harlem Nocturne
TTITLE7=Stack-A-Lee
TTITLE8=Don't Start Me To Talkin'
TTITLE9=Baby, I've Got News For You
TTITLE10=Country Girl
TTITLE11=Bye Bye Baby
EXTD=
EXTT0=
EXTT1=
EXTT2=
EXTT3=
EXTT4=
EXTT5=
EXTT6=
EXTT7=
EXTT8=
EXTT9=
EXTT10=
EXTT11=
PLAYORDER=
